<svg width="150" height="146" viewBox="0 0 150 146" fill="none" xmlns="http://www.w3.org/2000/svg">
<path d="M43.8757 113.366C41.987 112.496 41.7191 111.181 41.1236 110.149C28.0959 87.6666 15.1422 65.1385 2.01933 42.7092C0.412452 39.9641 0.479405 38.7343 3.40421 37.0957C16.7138 29.6286 29.8825 21.9114 43.8405 13.8559C43.8405 19.1029 43.9709 23.7297 43.7876 28.3424C43.689 30.8514 44.4078 32.3314 46.7054 33.6212C58.461 40.2143 70.132 46.959 81.7537 53.7882C83.6954 54.9299 85.052 54.8877 86.9761 53.7635C99.9404 46.1978 113.007 38.8083 125.985 31.2743C128.825 29.6251 131.475 27.8843 134.985 31.4716C134.985 24.9842 134.925 19.3531 135.02 13.729C135.052 11.8402 134.259 11.3821 132.547 11.3892C122.659 11.4385 112.771 11.442 102.886 11.3821C101.212 11.3715 99.9862 12.2137 98.6753 12.9714C88.8049 18.6659 78.8853 24.2794 69.1171 30.1466C66.7456 31.5738 64.9801 31.609 62.7883 30.0938C60.5084 28.5186 58.0487 27.2077 54.9829 25.3718C62.9257 20.7415 70.4915 16.3296 78.628 11.583C72.19 7.81596 66.2064 4.31325 60.1983 0.79644C60.8466 -0.384052 61.7875 0.109288 62.5064 0.109288C89.1115 0.0775732 115.71 0.144526 142.304 4.83254e-05C145.493 -0.017571 146.187 0.849298 146.152 3.91858C145.987 19.2262 146.075 34.5409 146.075 50.6026C142.783 48.6927 139.739 47.3325 137.184 45.3486C132.786 41.941 129.04 42.0714 124.244 45.1125C114.039 51.5788 103.425 57.4037 92.8821 63.3167C90.6338 64.5783 89.8551 65.9737 89.8762 68.5285C89.9995 83.4274 89.8621 98.3298 89.9925 113.229C90.0242 116.626 89.9044 119.579 85.3974 120.731C90.9756 123.966 96.0571 126.82 101.026 129.858C102.594 130.816 103.203 130.214 103.919 128.966C108.891 120.283 113.87 111.608 118.892 102.953C119.582 101.762 119.417 100.546 119.417 99.3094C119.417 88.4489 119.632 77.5778 119.307 66.7278C119.181 62.4322 120.393 59.962 124.343 58.0309C130.876 54.8348 130.742 54.5635 130.742 61.8896V81.8064C137.071 78.2262 142.872 74.9454 148.816 71.5802C149.436 73.2082 148.534 73.8989 148.115 74.6283C135.024 97.3959 121.908 120.149 108.739 142.871C107.978 144.186 107.753 146.695 104.951 145.056C91.1765 137.011 77.3524 129.054 63.19 120.861C67.6618 118.261 71.6931 115.801 75.8407 113.56C77.9092 112.443 78.7866 111.1 78.7725 108.655C78.688 95.1477 78.7197 81.6408 78.8818 68.1338C78.9135 65.6107 77.814 64.4796 75.816 63.3343C62.6685 55.8179 49.6091 48.143 36.4615 40.6195C33.9279 39.1712 31.507 37.9132 32.8179 33.2723C26.711 36.7292 21.4887 39.6611 16.291 42.6352C14.8074 43.4844 16.1007 44.3866 16.4813 45.0526C21.3653 53.6261 26.3516 62.1397 31.211 70.7239C31.9616 72.0524 33.054 72.7043 34.2556 73.395C44.2563 79.1388 54.2042 84.9779 64.2754 90.5984C66.7738 91.9939 67.9049 93.5479 67.6019 96.4621C67.3165 99.2107 67.542 102.016 67.542 105.501C59.4688 100.895 51.8714 96.5608 43.8652 91.9939V113.373L43.8757 113.366Z" fill="white"/>
</svg>
