<svg width="284" height="248" viewBox="0 0 284 248" fill="none" xmlns="http://www.w3.org/2000/svg">
<g clip-path="url(#clip0_4_328)">
<path d="M110.876 113.366C108.987 112.496 108.719 111.181 108.124 110.149C95.0959 87.6666 82.1422 65.1385 69.0193 42.7092C67.4125 39.9641 67.4794 38.7343 70.4042 37.0957C83.7138 29.6286 96.8825 21.9114 110.841 13.8559C110.841 19.1029 110.971 23.7297 110.788 28.3424C110.689 30.8514 111.408 32.3314 113.705 33.6212C125.461 40.2143 137.132 46.959 148.754 53.7882C150.695 54.9299 152.052 54.8877 153.976 53.7635C166.94 46.1978 180.007 38.8083 192.985 31.2743C195.825 29.6251 198.475 27.8843 201.985 31.4716C201.985 24.9842 201.925 19.3531 202.02 13.729C202.052 11.8402 201.259 11.3821 199.547 11.3892C189.659 11.4385 179.771 11.442 169.886 11.3821C168.212 11.3715 166.986 12.2137 165.675 12.9714C155.805 18.6659 145.885 24.2794 136.117 30.1466C133.746 31.5738 131.98 31.609 129.788 30.0938C127.508 28.5186 125.049 27.2077 121.983 25.3718C129.926 20.7415 137.491 16.3296 145.628 11.583C139.19 7.81596 133.206 4.31325 127.198 0.79644C127.847 -0.384052 128.788 0.109288 129.506 0.109288C156.112 0.0775732 182.71 0.144526 209.304 4.83254e-05C212.493 -0.017571 213.187 0.849298 213.152 3.91858C212.987 19.2262 213.075 34.5409 213.075 50.6026C209.783 48.6927 206.739 47.3325 204.184 45.3486C199.786 41.941 196.04 42.0714 191.244 45.1125C181.039 51.5788 170.425 57.4037 159.882 63.3167C157.634 64.5783 156.855 65.9737 156.876 68.5285C157 83.4274 156.862 98.3298 156.992 113.229C157.024 116.626 156.904 119.579 152.397 120.731C157.976 123.966 163.057 126.82 168.026 129.858C169.594 130.816 170.203 130.214 170.919 128.966C175.891 120.283 180.87 111.608 185.892 102.953C186.582 101.762 186.417 100.546 186.417 99.3094C186.417 88.4489 186.632 77.5778 186.307 66.7278C186.181 62.4322 187.393 59.962 191.343 58.0309C197.876 54.8348 197.742 54.5635 197.742 61.8896V81.8064C204.071 78.2262 209.872 74.9454 215.816 71.5802C216.436 73.2082 215.534 73.8989 215.115 74.6283C202.024 97.3959 188.908 120.149 175.739 142.871C174.978 144.186 174.753 146.695 171.951 145.056C158.177 137.011 144.352 129.054 130.19 120.861C134.662 118.261 138.693 115.801 142.841 113.56C144.909 112.443 145.787 111.1 145.773 108.655C145.688 95.1477 145.72 81.6408 145.882 68.1338C145.913 65.6108 144.814 64.4796 142.816 63.3343C129.668 55.8179 116.609 48.143 103.462 40.6195C100.928 39.1712 98.507 37.9132 99.8179 33.2723C93.711 36.7292 88.4887 39.6611 83.291 42.6352C81.8074 43.4844 83.1007 44.3866 83.4813 45.0526C88.3653 53.6261 93.3516 62.1397 98.211 70.7239C98.9616 72.0524 100.054 72.7043 101.256 73.3949C111.256 79.1388 121.204 84.9779 131.275 90.5984C133.774 91.9939 134.905 93.5479 134.602 96.4621C134.316 99.2107 134.542 102.016 134.542 105.501C126.469 100.895 118.871 96.5608 110.865 91.9939V113.373L110.876 113.366Z" fill="white"/>
</g>
<path d="M32.2648 159.129H38.5193L29.9587 183.588H24.5428L22.2367 176.775L19.4414 168.564L16.716 176.775L14.3749 183.588H9.06384L0.46831 159.129H6.72278L9.7976 168.878L11.7893 175.831L17.3449 159.129H21.468L27.1634 175.936L29.2948 168.878L32.2648 159.129ZM47.0596 178.766H60.5469V183.588H41.504V159.129H60.1626V163.916H47.0596V168.878H59.4638V173.49H47.0596V178.766ZM70.331 178.766H83.8183V183.588H64.7754V159.129H83.434V163.916H70.331V168.878H82.7351V173.49H70.331V178.766ZM96.2361 159.129H101.966V178.417H114.266V183.588H96.2361V159.129ZM128.928 184.182C126.296 184.182 123.978 183.658 121.975 182.61C119.995 181.538 118.457 180.036 117.363 178.102C116.291 176.169 115.755 173.921 115.755 171.359C115.755 168.796 116.291 166.549 117.363 164.615C118.457 162.682 119.995 161.191 121.975 160.143C123.978 159.071 126.296 158.535 128.928 158.535C131.56 158.535 133.867 159.071 135.847 160.143C137.85 161.191 139.387 162.682 140.459 164.615C141.554 166.549 142.101 168.796 142.101 171.359C142.101 173.921 141.554 176.169 140.459 178.102C139.387 180.036 137.85 181.538 135.847 182.61C133.867 183.658 131.56 184.182 128.928 184.182ZM128.928 179.081C130.396 179.081 131.689 178.766 132.807 178.137C133.948 177.485 134.822 176.577 135.427 175.412C136.056 174.247 136.371 172.896 136.371 171.359C136.371 169.821 136.056 168.47 135.427 167.306C134.822 166.141 133.948 165.244 132.807 164.615C131.689 163.963 130.396 163.637 128.928 163.637C127.461 163.637 126.168 163.963 125.05 164.615C123.932 165.244 123.058 166.141 122.429 167.306C121.823 168.47 121.521 169.821 121.521 171.359C121.521 172.896 121.823 174.247 122.429 175.412C123.058 176.577 123.932 177.485 125.05 178.137C126.168 178.766 127.461 179.081 128.928 179.081ZM168.033 169.123V180.024C166.799 181.352 165.273 182.377 163.456 183.099C161.662 183.798 159.682 184.147 157.516 184.147C154.93 184.147 152.659 183.623 150.703 182.575C148.769 181.527 147.267 180.036 146.195 178.102C145.147 176.169 144.623 173.921 144.623 171.359C144.623 168.866 145.182 166.653 146.3 164.72C147.418 162.763 148.979 161.249 150.982 160.178C153.009 159.083 155.326 158.535 157.935 158.535C159.822 158.535 161.523 158.862 163.037 159.514C164.574 160.166 165.983 161.156 167.265 162.484L163.805 165.908C163.037 165.139 162.128 164.545 161.08 164.126C160.055 163.707 158.995 163.497 157.9 163.497C155.548 163.497 153.684 164.208 152.31 165.628C150.959 167.026 150.283 168.936 150.283 171.359C150.283 172.92 150.586 174.294 151.192 175.482C151.797 176.67 152.659 177.59 153.777 178.242C154.895 178.894 156.188 179.221 157.656 179.221C159.962 179.221 161.802 178.627 163.177 177.439V173.7H156.538V169.123H168.033ZM172.295 159.129H178.025V183.588H172.295V159.129ZM192.434 184.147C190.431 184.147 188.497 183.844 186.634 183.239C184.794 182.633 183.198 181.783 181.847 180.688L184.817 176.53C186.983 178.231 189.511 179.081 192.399 179.081C193.843 179.081 194.985 178.836 195.823 178.347C196.685 177.858 197.116 177.194 197.116 176.355C197.116 175.563 196.72 174.946 195.928 174.504C195.136 174.061 193.878 173.746 192.155 173.56C188.823 173.187 186.378 172.407 184.817 171.219C183.279 170.031 182.511 168.331 182.511 166.118C182.511 164.627 182.93 163.311 183.769 162.169C184.607 161.028 185.784 160.143 187.298 159.514C188.812 158.885 190.559 158.57 192.539 158.57C194.239 158.57 195.893 158.815 197.501 159.304C199.131 159.793 200.564 160.48 201.798 161.366L199.108 165.384C197.198 164.056 195.09 163.392 192.783 163.392C191.363 163.392 190.221 163.625 189.359 164.091C188.521 164.557 188.101 165.186 188.101 165.978C188.101 166.747 188.462 167.341 189.185 167.76C189.93 168.179 191.165 168.494 192.888 168.703C196.196 169.076 198.665 169.903 200.296 171.184C201.926 172.442 202.742 174.177 202.742 176.39C202.742 177.928 202.311 179.29 201.449 180.478C200.587 181.643 199.376 182.552 197.815 183.204C196.254 183.833 194.461 184.147 192.434 184.147ZM224.8 159.129V164.126H217.323V183.588H211.592V164.126H204.15V159.129H224.8ZM227.982 159.129H233.712V183.588H227.982V159.129ZM250.847 184.147C248.215 184.147 245.897 183.612 243.894 182.54C241.914 181.468 240.376 179.966 239.281 178.033C238.21 176.099 237.674 173.875 237.674 171.359C237.674 168.843 238.222 166.618 239.316 164.685C240.434 162.728 241.984 161.226 243.964 160.178C245.944 159.106 248.203 158.57 250.742 158.57C254.353 158.57 257.451 159.84 260.036 162.379L256.507 165.908C254.947 164.417 253.072 163.672 250.882 163.672C249.414 163.672 248.11 163.998 246.968 164.65C245.85 165.279 244.977 166.176 244.348 167.341C243.742 168.505 243.439 169.845 243.439 171.359C243.439 172.873 243.742 174.212 244.348 175.377C244.977 176.542 245.85 177.45 246.968 178.102C248.11 178.731 249.414 179.046 250.882 179.046C252.047 179.046 253.165 178.836 254.236 178.417C255.308 177.998 256.24 177.392 257.032 176.6L260.386 180.339C257.754 182.878 254.574 184.147 250.847 184.147ZM272.519 184.147C270.516 184.147 268.582 183.844 266.719 183.239C264.878 182.633 263.283 181.783 261.932 180.688L264.902 176.53C267.068 178.231 269.596 179.081 272.484 179.081C273.928 179.081 275.07 178.836 275.908 178.347C276.77 177.858 277.201 177.194 277.201 176.355C277.201 175.563 276.805 174.946 276.013 174.504C275.221 174.061 273.963 173.746 272.239 173.56C268.908 173.187 266.462 172.407 264.902 171.219C263.364 170.031 262.596 168.331 262.596 166.118C262.596 164.627 263.015 163.311 263.854 162.169C264.692 161.028 265.868 160.143 267.383 159.514C268.897 158.885 270.644 158.57 272.624 158.57C274.324 158.57 275.978 158.815 277.585 159.304C279.216 159.793 280.649 160.48 281.883 161.366L279.193 165.384C277.283 164.056 275.174 163.392 272.868 163.392C271.447 163.392 270.306 163.625 269.444 164.091C268.606 164.557 268.186 165.186 268.186 165.978C268.186 166.747 268.547 167.341 269.269 167.76C270.015 168.179 271.249 168.494 272.973 168.703C276.281 169.076 278.75 169.903 280.381 171.184C282.011 172.442 282.827 174.177 282.827 176.39C282.827 177.928 282.396 179.29 281.534 180.478C280.672 181.643 279.461 182.552 277.9 183.204C276.339 183.833 274.546 184.147 272.519 184.147Z" fill="white"/>
<defs>
<clipPath id="clip0_4_328">
<rect width="148.062" height="145.588" fill="white" transform="translate(67.969)"/>
</clipPath>
</defs>
</svg>
